<svg xmlns="http://www.w3.org/2000/svg" xmlns:xlink="http://www.w3.org/1999/xlink" version="1.1" width="21" height="21" viewBox="0 0 21 21" xml:space="preserve">
<desc>Created with Fabric.js 3.5.0</desc>
<defs>
</defs>
<rect x="0" y="0" width="100%" height="100%" fill="#ffffff"/>
<g transform="matrix(0.0112 0 0 0.0142 10.5352 10.4968)" id="733970">
<path style="stroke: none; stroke-width: 1; stroke-dasharray: none; stroke-linecap: butt; stroke-dashoffset: 0; stroke-linejoin: miter; stroke-miterlimit: 4; is-custom-font: none; font-file-url: none; fill: #2f405e; fill-rule: nonzero; opacity: 1;" vector-effect="non-scaling-stroke" transform=" translate(-896, -960)" d="M 1792 710 v 794 q 0 66 -47 113 t -113 47 h -1472 q -66 0 -113 -47 t -47 -113 v -794 q 44 49 101 87 q 362 246 497 345 q 57 42 92.5 65.5 t 94.5 48 t 110 24.5 h 2 q 51 0 110 -24.5 t 94.5 -48 t 92.5 -65.5 q 170 -123 498 -345 q 57 -39 100 -87 z m 0 -294 q 0 79 -49 151 t -122 123 q -376 261 -468 325 q -10 7 -42.5 30.5 t -54 38 t -52 32.5 t -57.5 27 t -50 9 h -2 q -23 0 -50 -9 t -57.5 -27 t -52 -32.5 t -54 -38 t -42.5 -30.5 q -91 -64 -262 -182.5 t -205 -142.5 q -62 -42 -117 -115.5 t -55 -136.5 q 0 -78 41.5 -130 t 118.5 -52 h 1472 q 65 0 112.5 47 t 47.5 113 z" stroke="#2f405e"/>
</g>
</svg>